/* XPM */
static char *_4267ea99cc447c1ae0bbddfbb7314a9sUWhyXtmX199dyD7[] = {
/* columns rows colors chars-per-pixel */
"64 64 207 2 ",
"   c #EF0100",
".  c #EF0B00",
"X  c #F10200",
"o  c #F30E02",
"O  c #EF1500",
"+  c #F31300",
"@  c #F41B02",
"#  c #F21514",
"$  c #EF2E00",
"%  c #F52202",
"&  c #F32C00",
"*  c #F1270D",
"=  c #F33300",
"-  c #F43F00",
";  c #F22A2C",
":  c #F4302C",
">  c #F44603",
",  c #F64E00",
"<  c #F65700",
"1  c #F85100",
"2  c #F55B00",
"3  c #F95B00",
"4  c #F86903",
"5  c #F96C00",
"6  c #F57500",
"7  c #FA7300",
"8  c #FA7A01",
"9  c #F44E27",
"0  c #F66A41",
"q  c #F87446",
"w  c #BF9A37",
"e  c #BC9B3E",
"r  c #D7981E",
"t  c #D9981C",
"y  c #F58300",
"u  c #FC8C01",
"i  c #EE9D0A",
"p  c #FB9401",
"a  c #F49D04",
"s  c #FC9D00",
"d  c #F69E0A",
"f  c #FB8713",
"g  c #E59A12",
"h  c #F5A500",
"j  c #FBA401",
"k  c #F6AA00",
"l  c #FDAD01",
"z  c #F7A10C",
"x  c #FAA30A",
"c  c #F6AB0A",
"v  c #FCAE0A",
"b  c #FDB301",
"n  c #FFBB00",
"m  c #FEB30C",
"M  c #FFBB0C",
"N  c #F7A213",
"B  c #FAA513",
"V  c #F6A916",
"C  c #FAAC16",
"Z  c #F9A71D",
"A  c #FDB314",
"S  c #FFBB14",
"D  c #F6B119",
"F  c #FDB51B",
"G  c #FFBC1B",
"H  c #C8992E",
"J  c #C89A34",
"K  c #EE9827",
"L  c #EAA125",
"P  c #F6A624",
"I  c #F8A622",
"U  c #F7A929",
"Y  c #F6A92C",
"T  c #FDB521",
"R  c #FFBA24",
"E  c #F9B52B",
"W  c #FEBC2C",
"Q  c #EFA732",
"!  c #F8AE32",
"~  c #F6AD39",
"^  c #F7B736",
"/  c #FCBC32",
"(  c #FBBE3B",
")  c #FFC200",
"_  c #FFC10C",
"`  c #FFC313",
"'  c #FFC31D",
"]  c #FFC323",
"[  c #FFC22A",
"{  c #FFC929",
"}  c #FFC434",
"|  c #FEC43B",
" . c #FFCB39",
".. c #B79E46",
"X. c #B8A04B",
"o. c #B4A352",
"O. c #B9A454",
"+. c #B7A759",
"@. c #B9A95C",
"#. c #BCAC63",
"$. c #BFB06B",
"%. c #C09F43",
"&. c #F99150",
"*. c #F5AE40",
"=. c #F5B046",
"-. c #F9BD43",
";. c #F6B14A",
":. c #F8BF49",
">. c #F7B757",
",. c #F5B85E",
"<. c #C7AF67",
"1. c #C0B26F",
"2. c #C2B574",
"3. c #C4B778",
"4. c #C6B97D",
"5. c #F5BB64",
"6. c #F5BD6B",
"7. c #F4BF73",
"8. c #FFC544",
"9. c #FFCA45",
"0. c #FCC54B",
"q. c #FFCA4B",
"w. c #FFD04E",
"e. c #FAC553",
"r. c #FFCA53",
"t. c #FCC45A",
"y. c #FFCC5C",
"u. c #FFD153",
"i. c #FFD15D",
"p. c #FDCD63",
"a. c #FBCD6C",
"s. c #FFD265",
"d. c #FFD36B",
"f. c #FACE73",
"g. c #F5C27B",
"h. c #FED273",
"j. c #FED57B",
"k. c #FFD87E",
"l. c #C7BB82",
"z. c #C9BD84",
"x. c #CBBF88",
"c. c #D6BE84",
"v. c #CCC18D",
"b. c #D6C088",
"n. c #CFC492",
"m. c #D0C696",
"M. c #D1C799",
"N. c #D3C99C",
"B. c #F4C686",
"V. c #F4C98B",
"C. c #FBD585",
"Z. c #FFD985",
"A. c #FBD78B",
"S. c #FEDA8C",
"D. c #F5CC94",
"F. c #F4CE9B",
"G. c #FDDC93",
"H. c #F6D19E",
"J. c #FCDD9B",
"K. c #FFE19E",
"L. c #D6CDA3",
"P. c #D7CFA8",
"I. c #D8D1AC",
"U. c #DCD5B4",
"Y. c #DFD8B9",
"T. c #E7D4AF",
"R. c #F5D2A4",
"E. c #FCDFA1",
"W. c #F5D6AC",
"Q. c #E4D9BA",
"!. c #F5D7B1",
"~. c #F5D9B5",
"^. c #F5DCBB",
"/. c #FEE1A4",
"(. c #FEE4AB",
"). c #FEE6B2",
"_. c #FFE8B6",
"`. c #FCE7BA",
"'. c #FFE9BA",
"]. c #FEE9BE",
"[. c #E2DCC2",
"{. c #E4DFC8",
"}. c #F5DEC2",
"|. c #E6E2CD",
" X c #F5E0C5",
".X c #FFECC5",
"XX c #F5E3CB",
"oX c #FEEDCA",
"OX c #E9E6D5",
"+X c #EAE7D8",
"@X c #ECEADD",
"#X c #F5E6D3",
"$X c #F6E8D7",
"%X c #F6EADC",
"&X c #FFF1D5",
"*X c #FFF2D8",
"=X c #EFECE2",
"-X c #F2EEE5",
";X c #F4EFE8",
":X c #FFF6E4",
">X c #F3F1EC",
",X c #F7F5F4",
"<X c #F7F6F7",
"1X c #F7F7F7",
"2X c #F7F7F8",
"3X c #F7F8F9",
"4X c #F7F8FA",
/* pixels */
"1X1X1X1X1X1X1X1X1X1X1X1X1X1X1X1X1X1X1X1X1X1X1X1X1X1X1X1X2X1X1X1X1X1X1X1X1X1X1X1X1X1X1X1X1X1X1X1X1X1X1X1X1X1X1X1X1X1X1X1X1X1X1X1X",
"1X1X1X1X1X1X1X1X1X1X1X1X1X1X2X1X1X2X1X1X1X1X1X1X1X1X1X1X1X4X1X,X1X1X1X1X1X1X1X1X2X1X1X1X1X1X1X1X1X1X1X1X1X1X1X1X1X1X1X1X1X1X1X1X",
"2X1X1X1X1X2X1X1X1X2X1X1X1X1X1X1X1X1X1X1X1X1X1X1X1X1X1X1X3X4X3X2X4X4X4X4X1X1X1X1X1X1X1X1X1X1X1X1X1X1X1X1X1X1X1X1X1X1X1X1X1X1X1X1X",
"1X1X1X1X1X1X1X1X1X1X1X1X1X1X1X1X1X1X1X1X1X1X1X1X4X1X1X;XoX~.R.D.D.R.~.XX>X1X4X1X1X1X1X1X1X1X1X1X1X1X1X1X1X1X1X1X1X1X1X1X1X1X1X1X",
"1X1X3X1X1X1X1X1X1X1X1X1X1X1X1X1X1X1X1X1X2X2X4X3X:XW.6.! B x j j j j x B ! 5.W.%X2X2X2X2X1X1X1X1X1X1X1X1X1X1X1X1X1X1X1X1X1X1X1X1X",
"1X1X1X1X1X1X1X1X1X1X2X1X1X1X2X1X1X1X1X1X2X4X%XB.! x l F T F C l l l l l l j l ! B.%X2X2X1X1X1X1X1X1X1X1X1X1X1X1X1X1X1X1X1X4X1X1X",
"1X1X1X1X1X1X1X1X1X1X1X1X1X1X1X1X1X1X1X1X1XF.Y x W a.E.(.(.K.S.y.F l l l l j l l j U F.;X1X1X1X1X1X1X1X1X1X1X1X1X1X1X1X1X1X1X1X1X",
"1X1X1X1X1X1X1X1X1X1X1X1X1X1X1X1X1X2X1X$X,.j T S.oX*XoX.X).E.G.S.f.W l l l l l l l l x >.$X4X1X1X1X1X1X1X1X1X1X1X1X1X1X1X1X1X1X1X",
"1X1X1X1X1X1X1X1X1X1X1X1X1X1X1X1X1X2X}.! j | .X:X&XoX].(.E.G.Z.k.h.r.m l l l l l l l l j ! ~.4X1X1X1X1X2X1X1X1X2X1X1X1X1X4X1X1X1X",
"1X1X1X1X1X1X1X1X1X1X1X1X1X1X1X2X4X~.I j ( &X:X*XoX].(.K.G.Z.k.d.p.r.F l b l l l l l l l j Z W.4X1X1X1X1X1X1X1X1X1X1X1X1X1X1X1X1X",
"1X1X1X1X1X1X1X1X1X1X1X1X2X2X1X2X^.Z j F ].:X&X.X'.(./.G.S.j.d.p.r.8.S l l l b l l l l l l j Z !.2X2X1X1X1X1X1X1X1X1X1X1X1X1X1X1X",
"1X1X1X2X1X1X1X2X1X2X1X1X1X2X2XXXU l l p.:X&X.X_.(./.G.Z.k.d.p.r.8.} m b b b l l l l l l l l l P  X2X1X1X1X1X1X1X1X1X1X1X1X1X1X1X",
"2X1X1X1X1X1X1X1X1X1X1X2X1X2X;X=.j l l /.*X.X_.(.K.G.Z.j.d.s.r.9.| R b b b b b l b l l l l l l j ~ $X2X2X1X1X1X1X2X1X1X1X1X1X1X1X",
"1X1X1X1X1X1X1X1X1X1X1X1X1X1Xg.j l l C (..X_.(.K.K.k.j.d.i.r.8.} [ M b b b b b l b b l l b l l l l g.1X1X1X1X1X1X2X1X1X1X1X1X1X1X",
"1X1X1X1X1X1X1X1X1X1X2X1X2X~.B l l l n S.'.(.K.G.Z.j.s.i.r.9.| W S b b b b b b b l b b b l l l l l x !.2X1X1X1X1X2X2X1X1X1X1X1X1X",
"1X1X1X1X1X1X1X1X1X1X1X2X>X;.j l W y.| 9.(.K.G.Z.j.d.i.r.9.| ] M b b n b b b b b m m m m m m v l l l ~ >X2X1X2X2X2X2X1X1X1X1X1X1X",
"2X1X1X1X2X1X1X1X1X1X1X2XR.x l y.]..X).q.q.Z.Z.j.d.s.q.9.} G n b b n n b b b b m S G W / W G A v l l x H.2X2X2X2X2X1X1X1X1X1X1X1X",
"1X1X1X1X1X1X1X1X1X1X3X>X=.j r..X.X_.(.j.m S  .q.9.| [ S n n n b n b n b n n M S [ | q.y.q.8.W F C l j ~ ;X2X2X2X1X1X2X1X1X1X1X1X",
"1X1X1X1X1X1X1X1X2X1X3X~.x T )..X_.(.K.k.M b b b b n b n b n n n n b n n b b M ] | r.p.s.p.y.8./ A m l x W.2X1X2X1X1X1X1X1X1X1X1X",
"1X1X1X1X1X1X1X1X2X2X1X6.j h..X_.(.J.S.h.S b b b n b n n n n n b n n n M p 4 ' } q.s.s.d.s.s.r.8.W A v j ,.1X2X2X1X1X1X1X1X1X1X1X",
"1X1X1X1X2X1X1X1X1X2X%XI A /._./.K.S.Z.i.m b n n s l n n n n n n n n n ) 8 * I 8.r.s.d.d.d.d.s.r./ R v l I $X2X2X1X1X1X1X1X1X1X1X",
"1X1X1X1X1X1X1X1X3X3X!.x ( )./.K.S.Z.h.| b b b b < 7 n n n n n n n n l p > # 9 0 &.s.d.d.d.d.s.y.8.W A v x R.2X2X1X1X1X1X1X1X1X1X",
"1X1X1X1X1X1X1X1X,X2Xg.j r./.J.S.Z.h.s.R b b n b = & s p j n n ) n b 1 o X # ; 0 >.d.d.d.d.d.s.s.0.( F v j 6.3X2X2X1X1X1X1X1X1X1X",
"2X1X1X1X2X1X1X1X,X1X;.j r.J.S.k.h.s.8.n b j 7 1 o X o @ u ) ) ) ) n l 3 o # ; &.i.d.d.d.d.d.d.s.r.| T A l *.>X2X1X1X1X1X1X2X2X1X",
"1X1X1X1X1X1X1X1X1X;XI b 8.S.C.h.s.r.G b b j -     X X 7 ) ) ) ) ) ) ) j @ # : q i.s.d.d.d.d.d.s.y.8.W A l P %X4X1X1X1X1X1X1X1X1X",
"1X3X1X1X1X3X1X1X2XXXB l T j.h.p.r.R b n b n b 1 X X + s ) ) ) ) ) ) ) p % f K q i.s.d.d.d.d.d.d.y.8.W A v x }.4X1X1X1X2X1X1X1X1X",
"1X1X1X1X1X1X1X1X2X~.x l v | y.8.G b b b b n n 5 X = + 4 ) ) ) ) ) ) ) s p ` { 8.u.s.d.d.d.d.d.d.p.8./ A v x W.4X1X1X1X1X1X1X1X1X",
"1X1X1X1X1X1X1X1X2XR.j j l l v b b b b b n b n < 3 b p 5 ) ) ) ) ) ) ) ) ) _ ] 9.u.s.d.d.d.d.d.d.p.0./ F l j F.4X1X1X1X1X1X2X1X1X",
"1X1X1X1X1X1X1X1X4XD.s l l l l b b b b b n n n s b ) ) ) ) ) ) ) ) ) ) ) ) _ '  .w.i.d.d.d.d.d.d.y.0./ F v j V.4X1X1X1X1X1X1X1X1X",
"1X1X3X1X1X1X1X1X4XD.j l l l l b b b b n b b n n n n n ) ) ) ) ) ) ) ) ) M ) ` { 9.i.s.d.d.d.d.d.y.8.W A m j B.2X1X1X1X1X1X1X1X1X",
"1X1X1X1X1X1X1X1X4XD.j l l l b l b b b b n n n n n n ) ) ) ) ) ) ) ) ) ) M ) _ ]  .u.s.d.h.d.s.p.y.8.R A l j V.2X2X1X1X1X1X1X1X1X",
"1X1X1X1X1X1X1X1X4XH.s l l l l b l b b b m n b n n ) n ) ) ) ) ) ) ) ) ) ) ) ) ` { 9.i.s.d.d.s.p.r.| T v l j D.2X1X1X1X1X1X2X1X1X",
"1X1X1X2X1X1X1X2X3XR.a h j l b l b b b b b n n n n ) ) n ) ) ) ) ) ) ) ) ) n n _ ' } q.i.s.d.d.y.8.W F c h j F.4X1X4X1X1X1X1X1X1X",
"1X1X1X1X1X1X1X1X4X^.z h h l l b b b b b b n b b n n n ) ) ) ) ) ) ) ) ) ) b 5 v _ '  .9.y.i.y.9.} F v h j a ~.1X1X1X1X1X1X1X1X1X",
"1X1X1X1X1X1X1X1X4X#XV h h h l b b b b b b n n n n b l n ) n n ) ) ) ) ) n l @ 8 M M G { | | | W G c c h h N XX1X1X1X1X1X1X1X1X1X",
"1X1X1X1X1X1X1X1X4X;XY j h h h k l b b b n b n b n u 1 n ) ) ) ) ) ) ) n l 8 o % , > z S S G S A c c h h j P -X,X1X1X1X1X1X1X1X1X",
"1X1X2X1X1X1X1X1X1X1X>.j h h h k k l b b n b n n ) 7 + u k j n n ) ) n 8 @ X X X . 2 b b b b c k h h h h h ;.1X1X1X1X1X1X1X1X1X1X",
"1X1X1X1X1X1X1X1X1X2XB.j h h h h k l l b b b b u 5 &   + @ 2 n n n n n b 7 + X X = k n b c b k k k k h h h g.2X1X1X1X1X1X1X1X1X1X",
"1X1X1X1X1X1X1X1X2X2X^.N h h h h k k k b b b l 3 .   X X $ k n n n n n n n > X   O h n b b k k k h k k h d ~.3X1X1X1X1X1X1X1X1X1X",
"1X1X1X1X2X1X1X1X1X1X-X~ h h h h k k k k k b b b 6 .   X 4 ) n n n n n n l & > 8 - 6 k k b k c c k h h h Y >X3X3X1X1X1X1X1X1X4X1X",
"1X1X1X1X1X1X2X1X1X1X2Xg.h h h h h k k k k b k b a O O O $ b n n n n n b k 6 k ) i k k n c D } | D h h a 7.1X1X1X1X1X1X1X1X1X1X1X",
"1X1X1X1X1X1X1X1X2X1X3XXXN h h h h k k h b k k b y $ a a < a n n b n n b k ) ) k c k k c D 0.a.a.-.c h B }.4X1X1X1X1X1X1X1X1X1X1X",
"2X1X1X1X1X1X1X1X1X1X1X1X5.a h h k h k k k k k b k i ) k k k b b b b b k k k k ) c k c ` 0.a.C.A.t.z j >.1X1X1X1X1X1X1X1X1X1X1X4X",
"1X1X1X1X1X1X1X1X1X1X1X2X^.N h h k k k k k b k b k k c c b b b b k b b b ) k k k c k c | f.C.G.F.:.c d ~.1X1X1X1X1X1X1X1X1X1X1X1X",
"1X1X1X1X1X1X2X1X1X2X1X1X1X6.h h h k k k k k k b b k n n b k k b b k ) k c k k k k k D i.A.T.(.C.E h ,.1X1X1X1X1X1X1X1X1X1X1X1X1X",
"1X1X1X3X1X1X1X1X1X1X2X1X1X#XP k h i k h k k k k k b k k k b b k k b k c k _ _ D D _ E f.E.(.J.e.z Z XX1X1X1X1X1X1X1X1X1X1X1X1X1X",
"1X1X1X1X1X1X1X1X2X1X2X1X1X2XH.i h h h h k k k k k k b k k k b b n n k c ' E -.e.e.e.0.f.J.N.w.D z D.1X1X1X4X1X1X1X1X1X1X1X1X1X1X",
"1X1X1X1X1X1X1X1X1X2X,X1X1X2X>Xt.i h h h k k k k k k k k k b k k k c D [ -.e.p.f.A.J.C.e.9.} c k ,.>X1X1X1X1X1X1X1X1X1X1X1X1X1X1X",
"1X1X1X1X3X1X1X1X1X1X1X1X>X1X>X=X;.j h h h h h h h k k k k k k k c D ^ 0.t.a.C.G.E.`.(.>.z c k ~ #X1X,X,X3X4X2X1X1X1X1X1X1X1X1X1X",
"1X1X1X1X1X1X1X1X1X>X1X>X>X=X=X+XQ.Q j h h h h h k h k k k k k b D ^ e.p.f.C.G.E.`.oX/.^ h h U T.+X=X=X;X>X>X1X1X1X1X2X1X1X1X1X2X",
"1X2X1X1X1X1X1X1X>X>X=X=X+X|.[.U.I.c.L h h h h h h k k k h k h c [ e.a.f.C.J.(.].oX`.a.V h L v.P.U.[.|.OX@X=X>X>X;X1X1X1X1X1X1X1X",
"1X1X1X1X1X>X>X>X=X=XOX|.[.U.P.N.x.l.<.L a j h h h h h k h h h c ^ a.j.A.J.).].].W.p.D h L <.v.n.M.P.U.[.|.OX=X=X>X>X>X1X1X1X1X1X",
"1X1X1X,X>X>X>X=X=XOX|.[.U.P.m.v.4.2.#.@.J i h h h h h h h h h c D e.f.A.H.J.G.f.8.C z H +.#.$.$.v.M.P.U.[.|.OX=X=X>X>X1X>X1X1X1X",
"1X1X,X,X,X,X>X>X@XOX|.[.U.P.n.v.4.$.#.+.o.e t h h h h h h h h h i D ^ | :.( E C i r J o.+.#.$.v.v.m.P.U.Y.|.OX=X=X>X>X>X1X1X1X1X",
"1X1X1X,X>X>X>X=X=X@X|.|.Y.I.N.n.x.3.$.@.O.o.o.w r i h j h h h h k k i k c h i r w ..o.+.#.$.$.v.n.N.I.Y.|.|.@X=X>X>X>X1X1X1X1X1X",
"1X1X1X1X,X,X1X>X>X-X=X+X|.[.Y.I.N.n.z.2.$.#.+.+.....J r g i a a a i i g r H e o.o.+.#.$.$.v.v.N.P.U.[.|.OX@X-X>X>X1X;X1X1X1X1X1X",
"1X1X1X1X,X1X1X1X1X>X>X=X=X@XOX|.Q.Y.I.L.n.v.4.$.1.#.@.+.O.X.X.%.X.X.X.O.+.@.#.$.$.v.v.v.N.P.Y.Y.{.OX@X@X=X>X>X,X1X,X2X1X1X1X1X1X",
"1X1X1X1X1X1X1X1X1X1X1X>X1X>X>X=X=X@XOX|.|.Y.Y.U.I.L.N.m.v.v.v.v.v.v.v.n.n.N.L.I.P.Y.Y.|.|.OXOX=X=X>X>X>X1X1X1X1X,X2X2X1X1X1X1X1X",
"1X1X1X1X1X1X2X1X1X1X3X1X1X1X1X1X>X,X>X>X>X-X-X=X=X@X@XOXOXOXOXOX|.OXOXOX+XOX@X=X=X=X>X>X>X>X1X1X2X1X1X1X1X1X1X1X2X2X2X1X1X1X1X2X",
"1X1X1X1X1X1X1X1X1X1X1X1X1X1X1X1X3X3X3X1X1X1X1X1X,X1X,X,X,X,X,X1X>X1X,X,X1X1X1X1X1X1X1X1X4X4X1X1X1X1X1X1X1X1X1X1X1X,X2X2X1X1X1X1X",
"1X1X1X1X1X,X3X1X1X3X1X1X1X,X1X1X,X3X1X1X1X1X1X1X1X1X1X1X1X1X1X1X1X1X1X1X1X1X1X1X1X1X1X1X1X1X1X2X1X1X1X1X1X1X1X1X1X1X2X1X1X2X1X1X",
"1X1X1X1X1X1X,X2X1X1X1X1X1X1X1X3X3X1X2X1X1X1X1X3X1X1X1X1X1X1X1X1X1X1X2X1X1X1X2X1X1X2X1X1X1X1X1X1X1X4X1X1X1X1X1X1X1X1X1X1X1X1X1X1X",
"1X1X1X1X1X1X1X1X1X1X1X1X1X1X1X1X3X1X3X3X1X1X1X1X1X1X,X1X1X3X1X1X1X1X1X1X1X1X1X1X1X1X1X1X1X1X1X1X1X1X1X1X1X1X1X1X1X1X1X1X1X1X1X1X",
"1X1X1X1X1X1X1X1X1X1X1X1X1X1X1X1X,X3X1X1X1X1X1X1X1X1X2X1X1X1X1X1X1X1X1X1X1X1X1X1X1X1X1X1X2X1X1X1X1X2X1X1X1X1X1X2X1X1X1X1X1X2X1X1X"
};
