/* XPM */
static char *_47239522a2e4972c230d4cba3767b4eD4eG8eShac5heVgb[] = {
/* columns rows colors chars-per-pixel */
"64 64 235 2 ",
"   c None",
".  c #3A6A36",
"X  c #4B7531",
"o  c #6E7A30",
"O  c #070055",
"+  c #090155",
"@  c #09015A",
"#  c #0F085C",
"$  c #140D5C",
"%  c #181851",
"&  c #26275D",
"*  c #2D3755",
"=  c #090066",
"-  c #120A65",
";  c #0C017D",
":  c #080078",
">  c #12077A",
",  c #16107A",
"<  c #161868",
"1  c #231E6B",
"2  c #1C306E",
"3  c #312D74",
"4  c #0F2457",
"5  c #4F3A61",
"6  c #345052",
"7  c #1C7B41",
"8  c #327151",
"9  c #134F71",
"0  c #294777",
"q  c #1A6266",
"w  c #376973",
"e  c #4F5255",
"r  c #73744D",
"t  c #545966",
"y  c #4A4877",
"u  c #57576E",
"i  c #53706D",
"p  c #676878",
"a  c #72767A",
"s  c #626C6A",
"d  c #60635A",
"f  c #987B45",
"g  c #80705C",
"h  c #A67C4A",
"j  c #21971F",
"k  c #2C941D",
"l  c #378A19",
"z  c #289723",
"x  c #399D27",
"c  c #398C37",
"v  c #368E31",
"b  c #568816",
"n  c #589329",
"m  c #529031",
"M  c #679725",
"N  c #6A853E",
"B  c #748E2E",
"V  c #4DA535",
"C  c #7AA637",
"Z  c #67B139",
"A  c #6AB13A",
"S  c #2F8244",
"D  c #559654",
"F  c #528E4D",
"G  c #6D9355",
"H  c #73934D",
"J  c #6AAA46",
"K  c #6CB243",
"L  c #76B644",
"P  c #73A553",
"I  c #6E926A",
"U  c #72A771",
"Y  c #588D65",
"T  c #8B8733",
"R  c #84AD3B",
"E  c #848447",
"W  c #979A4D",
"Q  c #8B9652",
"!  c #A5884B",
"~  c #B78B52",
"^  c #AA9653",
"/  c #B39552",
"(  c #87B94A",
")  c #94BA4C",
"_  c #86A75A",
"`  c #88B654",
"'  c #99BA54",
"]  c #91A849",
"[  c #A7AA54",
"{  c #BAA659",
"}  c #A8B557",
"|  c #929A70",
" . c #AE996F",
".. c #90B468",
"X. c #A4A565",
"o. c #A8B76C",
"O. c #C79B5B",
"+. c #99C456",
"@. c #A2C45B",
"#. c #A2C95C",
"$. c #97C268",
"%. c #AAC979",
"&. c #A8CC6C",
"*. c #0C0180",
"=. c #0B0E87",
"-. c #110582",
";. c #140983",
":. c #1A0F85",
">. c #0A1589",
",. c #0A1B8C",
"<. c #07198B",
"1. c #181286",
"2. c #241D82",
"3. c #09228F",
"4. c #0C3B8D",
"5. c #0A2591",
"6. c #052C94",
"7. c #092B93",
"8. c #072591",
"9. c #063296",
"0. c #083497",
"q. c #093598",
"w. c #0E399A",
"e. c #083596",
"r. c #123C94",
"t. c #123C9A",
"y. c #173495",
"u. c #1A2993",
"i. c #2E328E",
"p. c #2434A2",
"a. c #443D8C",
"s. c #1B429B",
"d. c #144298",
"f. c #0F4483",
"g. c #2B4D9E",
"h. c #254798",
"j. c #395695",
"k. c #314E8A",
"l. c #1A46A5",
"z. c #224AA2",
"x. c #294DA0",
"c. c #2852A7",
"v. c #3254A2",
"b. c #3C5DA7",
"n. c #2B5BB4",
"m. c #3A68BA",
"M. c #3F60AA",
"N. c #4B508F",
"B. c #496396",
"V. c #5A6D99",
"C. c #787B85",
"Z. c #68658C",
"A. c #5249A2",
"S. c #5259A3",
"D. c #4464AA",
"F. c #4C69AB",
"G. c #5977B4",
"H. c #4D6CB0",
"J. c #657CB7",
"K. c #6D73AE",
"L. c #655FA1",
"P. c #4A77C8",
"I. c #817E84",
"U. c #769091",
"Y. c #6B83B8",
"T. c #7889B3",
"R. c #7B85A4",
"E. c #5C8AD2",
"W. c #6B97D8",
"Q. c #7095C9",
"!. c #7AA4DB",
"~. c #76A1E0",
"^. c #85888A",
"/. c #888C90",
"(. c #878B90",
"). c #8D9195",
"_. c #979899",
"`. c #859A89",
"'. c #99B994",
"]. c #8FB385",
"[. c #B3B188",
"{. c #9899A8",
"}. c #899AB9",
"|. c #8687AE",
" X c #98A4BD",
".X c #9EA6AA",
"XX c #A2A3A4",
"oX c #A8ABAB",
"OX c #A2AAB6",
"+X c #B9BABA",
"@X c #B0B4B1",
"#X c #C6B9AB",
"$X c #B4CC8F",
"%X c #BED5B7",
"&X c #B6CCA8",
"*X c #9BC28E",
"=X c #C2D79B",
"-X c #C6D8A9",
";X c #CEDAB7",
":X c #8A9CC6",
">X c #869AC6",
",X c #969BC6",
"<X c #96A6C8",
"1X c #89A8D9",
"2X c #98B1DA",
"3X c #A3ACC3",
"4X c #ABB4C6",
"5X c #B7BCC7",
"6X c #AEABD0",
"7X c #94B6E4",
"8X c #BBC5CE",
"9X c #AAC3E6",
"0X c #C3C3C3",
"qX c #CCCCCC",
"wX c #C3C6CA",
"eX c #CDD9C5",
"rX c #D3D9CB",
"tX c #C8CAD2",
"yX c #CAD1D8",
"uX c #D3D3D3",
"iX c #D5D6DA",
"pX c #DBDBDC",
"aX c #D8DCD2",
"sX c #D0CFCF",
"dX c #DAE4D0",
"fX c #E2E7DA",
"gX c #CAD6E6",
"hX c #DCDEE4",
"jX c #D7DAE1",
"kX c #DCE1E9",
"lX c #E3E3E3",
"zX c #EBEBEB",
"xX c #E7EAE6",
"cX c #F0EEF2",
"vX c #E2DDD8",
/* pixels */
"                                                                                                                                ",
"                                                                                                                                ",
"                                                                                                                                ",
"                                                                                                                                ",
"                                                                                                                                ",
"                                                                                                                                ",
"                                                                                                                                ",
"                                                                                                                                ",
"                                                                                                                                ",
"                                                                                                                                ",
"                                                                                                                                ",
"                                                      p /./././.)./.^.a t                                                       ",
"                                            t I C.C.L.tXpXsXlXvXqXuXaX#XOXG.A.t 6                                               ",
"                                          e {.zXzXxXaX;X&X].@X@X{.@XsXuXlXzXsXXXS.g.i.                                          ",
"                                      * k.T.pXxXfXfX%.L ` ..[ @XpXlXpXuX5XvXxXsXXX#XI.2.                                        ",
"                                    k.h.T.qXfX-X$XrX;XD D ;XdXeXfXsX_._.XXqXxXzXqXoXtX1Xi.                                      ",
"                                6 C.XXOXsX-XX. .+.n V K %XfX..m U.jXtX5XpXjXlXzXsXsXjX8X{.p                                     ",
"                              * k.4XU X.O.G H  .&Xz j Z $.%.L b S G.W.F.3XH.4XhXtXoXL.i.a.C.p                                   ",
"                            * k.<XG.F W ~ Q W ^ $.j z x +.#.C b U Y.l.t.x.w.v.D.W.1XD.>.;.3 1 +                                 ",
"                            0 V.F.y.Y { ~ ! / { ( z j z L C 8 9 k.c.0.0.7.0.6.q.z.1X9XJ.>.*.= : @                               ",
"                          * h.C.4.e.F } ! h O.} I q q q ) M i h.e.e.e.e.9.q.w.w.9.D.J.D.5.*.*.; #                               ",
"                          1 t.j.r.9.Y J W O.^ H j.e.9.w.i X H N.e.e.e.e.q.t.w.q.9.9.9.q.7.=.*.-.5 I.s e                         ",
"                        & 8.6.9.q.j.'.*X_ Q o 9 9.9.0.0.q.i ].S.9.e.9.e.q.t.9.q.q.9.q.q.q.5.;.5 W _ | t                         ",
"                        2 s.D.H.j.{.pXcX'.n . 2 d.0 q.9.r.Y.}.Y.c.9.0.0.q.9.q.9.q.q.9.9.y.3.:.d o.J / g e                       ",
"                        >.g. X4XR.iXzXkX&X_ M 8 w P z.q.9.e.e.Y.Y.0.9.9.9.9.q.9.9.q.q.q.0.6.*.2.K.m W | t                       ",
"                      2 w.h.w.w.h.tXkX9X}.OX&XG m ..Q.n.w.9.e.w.w.0.9.q.l.q.q.q.9.q.9.9.9.8.*.*., 7 H | s                       ",
"                      2 D.T.y.t.x.<X~.9X7Xm.d.r.k.$.%.8Xm.9.e.d.4.f.e.l.P.d.q.q.q.9.q.q.8.*.*.*.:., X | /.d                     ",
"                      ,.t.y.i.<X8XM.d.c.c.l.q.9.v.oX].yX!.c.r.6 X S 8 d.l.e.9.q.9.q.9.q.8.*.-.;.;.*.p ^.^.s                     ",
"                      *.,.0.l.1XgXc.9.J.5X1Xm.q.d.g.h.M.].8X'.B M +.L P S S f.q.9.9.q.9.3.-.;.-.*.; Z.D D s                     ",
"                    1 A.T.q.t.n.~.z.q.E.gXzX>XD.>Xw.t.|.eXfXfX%.+.#.$.F z K S 7 9 9.q.8.1.;.-.*.*.*.1 7 6 *                     ",
"                    2 V.R.0.7.,.p.w.q.l.W.gXgX2X7X1XE.iXxXcXcX].C #.` c c V z v 7 9 9.3.*.-.*.*.-.; -.4 % %                     ",
"                    2 h.g.0.7.*.*.6.q.9.l.W.7XP.H.G.P.7XiXlX%X%.&X$X+.J V z c D K U.b.,.*.*.; *.*.; : = + %                     ",
"                    2 t.q.q.6.,.,.6.q.q.9.c.c.9.9.<.w.m.`.rX-X;XfX$X+.( Z k x Z Z _ i 6 3 > *.*.*.; = + O                       ",
"                    3 5.,.5.0.5.0.q.9.q.q.9.0.9.d.D.n.d.N $XxXcX-X+.R Z V j j j z n b n d 3 ; ; *.; @ + O                       ",
"                      *.=.,.7.>.6.7.6.7.9.9.q.9.v.5X1XG.P +.=XdX=XR M Z x j j j m ` K V B d > ; *.; = + O                       ",
"                      >.0.0.7.0.0.>.8.>.8.9.9.9.g.<XgXgX_ R @.#.#.+.L L Z x j x [ } #.[ o 8 ; ; *.2.# + O                       ",
"                      3.0.5.>.0.0.7.>.8.9.q.q.0.r.l.E.~.OX_ ( #.#.#.#.@.+.A M ) { [ +.P F 6 ; *.-.Z.& O @                       ",
"                        0.9.7.q.7.>.5.0.q.9.9.q.e.e.w.l.OXuX$X&.#.@.@.{ #.+.@.{ ~ B b W R.2.; *.: # + + $                       ",
"                        7.t.0.0.0.7.7.0.9.q.q.w.w.t.q.w. XlXfXfX=X@.( H { / { ~ [ B o [.kX,X:.> @ + + +                         ",
"                        b.T.w.w.0.0.0.w.e.q.9.v.<X<Xd.w.v.OXlXjX[.! E F O.h h h / /  .fXzXiX{.Z.$ + + O                         ",
"                          5X3XT.t.0.w.w.e.0.9.s.F.D.w.t.>X5XtXpX#X~ E m B o f ~ O.T %.6XA.L._.^.$ O +                           ",
"                          K.aXiX<Xz.r.w.9.0.0.0.9.l.Q.h.G.4XT.G._.{ f v l k n T B e N.a.*., i.3 # +                             ",
"                            T.iXzX<Xl.>.5.q.6.>.,.s.Y.u.>.S.g.6.i } f N F ].'.].8 < : *.*.; = = @ +                             ",
"                            p.T.<XhX:Xp.8.q.7.>.<.9.6.>.>.7.9.9 Y _ f o m -XzXzXA.: *.*.*.: + + +                               ",
"                                t.:XlX:Xh.6.6.s.v.q.e.q.9.9.e.w U ^ T v b P aXzXK.A.2.> > > # +                                 ",
"                                  t.:XhX:Xp.<.D.4Xj.v.q.9.9.9.V.X.h r S D U sXzXsX4XZ.< > > +                                   ",
"                                    t.>XiX:Xh.Y.kXwX5XD.v.g.x.i T f r H.wXkXqXpXuXXXI.y # + +                                   ",
"                                    0.h.}.iXyXtXzXlXlXkXkXwX5X$X[ r I gXxXlX0X%XuXoXy # +                                       ",
"                                        sXzXzXzXlXuXzXzXzXzXlXfX-XI B.XXqXwXXX_._.y $ +                                         ",
"                                        _.iXxXzXzXlXzXxXsXlXiXpXxXuX8X0XvXvXsX_.a.- +                                           ",
"                                            _.iXzXzXzXsX0XlXlXxXcXcXzXlXlXoX{.a.-                                               ",
"                                              a ).sXuXpXlXxXcXzXzXcXlX5XL.i.t *                                                 ",
"                                                  a a /./././.(././.^.p & &                                                     ",
"                                                                                                                                ",
"                                                                                                                                ",
"                                                                                                                                ",
"                                                                                                                                ",
"                                                                                                                                ",
"                                                                                                                                ",
"                                                                                                                                ",
"                                                                                                                                ",
"                                                                                                                                ",
"                                                                                                                                ",
"                                                                                                                                "
};
