/* XPM */
static char *_e743e87c9e64633e68b3440ff81a956sT4GgKUrqsc2pskb[] = {
/* columns rows colors chars-per-pixel */
"64 64 167 2 ",
"   c None",
".  c #010101",
"X  c #0A0604",
"o  c #0B0A0B",
"O  c #0D0803",
"+  c #1E0B00",
"@  c #120E0E",
"#  c #161208",
"$  c #141313",
"%  c #181615",
"&  c #1C1C1B",
"*  c #210901",
"=  c #320503",
"-  c #2A1304",
";  c #26190F",
":  c #321300",
">  c #3A1B00",
",  c #251B14",
"<  c #211F1F",
"1  c #26231B",
"2  c #372110",
"3  c #392619",
"4  c #010625",
"5  c #060820",
"6  c #0A0A22",
"7  c #141327",
"8  c #070C3D",
"9  c #2B1623",
"0  c #2A2525",
"q  c #2D2C2D",
"w  c #262222",
"e  c #343434",
"r  c #3A3434",
"t  c #3C3A3A",
"y  c #490B03",
"u  c #441D02",
"i  c #461E08",
"p  c #51111C",
"a  c #701618",
"s  c #49210B",
"d  c #4B2106",
"f  c #5C2401",
"g  c #572404",
"h  c #462D1B",
"j  c #5B291B",
"k  c #602700",
"l  c #622801",
"z  c #672F08",
"x  c #6D2E0A",
"c  c #692A00",
"v  c #763002",
"b  c #7A3303",
"n  c #7C340C",
"m  c #72310B",
"M  c #6D3E19",
"N  c #7B3812",
"B  c #52173E",
"V  c #452125",
"C  c #412D20",
"Z  c #4D392B",
"A  c #4D3729",
"S  c #51392A",
"D  c #573A25",
"F  c #502732",
"G  c #533D30",
"H  c #682D21",
"J  c #6D362B",
"K  c #5E4012",
"L  c #5C4230",
"P  c #6F472D",
"I  c #684935",
"U  c #7E553B",
"Y  c #7A5034",
"T  c #040D4A",
"R  c #000C55",
"E  c #0C145D",
"W  c #05105E",
"Q  c #1B1C52",
"!  c #3D2940",
"~  c #303747",
"^  c #2C2755",
"/  c #091469",
"(  c #151A69",
")  c #0A1773",
"_  c #2D2E75",
"`  c #7A1B4C",
"'  c #5A3545",
"]  c #412656",
"[  c #553060",
"{  c #4F327E",
"}  c #7C3E65",
"|  c #424242",
" . c #4B4B4B",
".. c #524F4F",
"X. c #534740",
"o. c #49504C",
"O. c #525252",
"+. c #585757",
"@. c gray35",
"#. c #634A45",
"$. c #4E546B",
"%. c #71576B",
"&. c #646363",
"*. c #6B6B6B",
"=. c #7F6F65",
"-. c #8B3902",
";. c #853607",
":. c #933C01",
">. c #832423",
",. c #833E3C",
"<. c #9D4101",
"1. c #AD4601",
"2. c #A54505",
"3. c #B24800",
"4. c #BB4C01",
"5. c #B24700",
"6. c #A64F14",
"7. c #82573A",
"8. c #A04835",
"9. c #C34F02",
"0. c #C55103",
"q. c #CE5400",
"w. c #D25601",
"e. c #DB5800",
"r. c #E55D00",
"t. c #E95F00",
"y. c #894243",
"u. c #835E45",
"i. c #8B624E",
"p. c #8C6144",
"a. c #9B6B4B",
"s. c #976C54",
"d. c #996C52",
"f. c #9C7052",
"g. c #A06F4E",
"h. c #A2704F",
"j. c #A37455",
"k. c #AF7954",
"l. c #B37C57",
"z. c #AE7C65",
"x. c #B17D61",
"c. c #7F832C",
"v. c #8A8729",
"b. c #B8815C",
"n. c #C98B5F",
"m. c #CC8D62",
"M. c #C68C65",
"N. c #D59365",
"B. c #D9996E",
"V. c #D09B78",
"C. c #E09969",
"Z. c #E69F70",
"A. c #EDA575",
"S. c #071687",
"D. c #061899",
"F. c #162082",
"G. c #3A2C8F",
"H. c #3A3B95",
"J. c #0018B4",
"K. c #182ABB",
"L. c #564A8B",
"P. c #464098",
"I. c #727F82",
"U. c #041DC1",
"Y. c #091FCF",
"T. c #9A9795",
"R. c #DDA884",
/* pixels */
"                                                                                                                                ",
"                                                                                                                                ",
"                                                                                                                                ",
"                                                                                                                                ",
"                                                                                                                                ",
"                                                                                                                                ",
"                                                                                                                                ",
"                                                                                                                                ",
"                                                                                                                                ",
"                                                                                                                                ",
"                                                                                                                                ",
"                                                                                                                                ",
"                                                                                                                                ",
"                                                                    @ X                                                         ",
"                                                                  q e $                                                         ",
"                                                                O.t X                                                           ",
"                                                              q @.% .     e e %                                                 ",
"                                                               . .. .   t &.*.O.r                                               ",
"                                                               . .. & | &.&.| | e o                                             ",
"                                                          % t O.% o O.*.+.< . . . . .                                           ",
"                                                        % O.O.< . . < q o . .                                                   ",
"                                                        r t % r o . . . % 7                                                     ",
"                                                    . q O.% & +.@ A , . & o.t q .                                               ",
"                                                  0 r O.& . , X.1 j.n.I . @ % % .                                               ",
"                                                o w 0 $ , Z A a.r f.A.B.S .                                                     ",
"                                                    . . 3 m.h.U T.=.l.B.I .                                                     ",
"                                                        % A b.m.R.V.m.j.                                                        ",
"                                                        d h u.s.N.B.k.3                                                         ",
"                                                    R D.y.6.a.s.7.Y D z u                                                       ",
"                                                  @ / U.K.8.b Z i.m.d.' x                                                       ",
"                                                u.p.I _ J.,.e.x Q ^ F.G.m 3   G u.C                                             ",
"                                              h.k.P i.x.F 6.e.q.J D.J.] N %.) #.Z.u.                                            ",
"                                              h.A.d.L.z.2 v 3.2.w.n j ;.U H.( l.N.I                                             ",
"                                              L z.L.H.#.    i 9 V [ { V h 7 6 A D                                               ",
"                                                < 4 5       4 E W D.U.8                                                         ",
"                                                            f 1.;.H F ;.                                                        ",
"                                                          + 4.t.t.w.l <.l                                                       ",
"                                                          + 4.r.r.t.:.1.<.                                                      ",
"                                                        O * b r.r.r.:.1.w.:                                                     ",
"                                                      X f 3.c e.r.r.-.v l X                                                     ",
"                                                    : g m 0.f m 9.w.-.- .                                                       ",
"                                                  # > 0.0.n 1.4.;.:.0.u                                                         ",
"                                                1 c.v.K d ; d 1.w.5.9.u                                                         ",
"                                                / K.P.M       s n ;.k                                                           ",
"                                                D.Y.` y       ~ $.>.*                                                           ",
"                                                T / p         o.I.} a                                                           ",
"                                                              8 S.S.B =                                                         ",
"                                                                                                                                ",
"                                                                                                                                ",
"                                                                                                                                ",
"                                                                                                                                ",
"                                                                                                                                ",
"                                                                                                                                ",
"                                                                                                                                ",
"                                                                                                                                ",
"                                                                                                                                ",
"                                                                                                                                ",
"                                                                                                                                ",
"                                                                                                                                ",
"                                                                                                                                ",
"                                                                                                                                ",
"                                                                                                                                ",
"                                                                                                                                ",
"                                                                                                                                "
};
