/* XPM */
static char *_86a850718a347808ff94567bd8ad04dCpY3z9erfCIoDS4Y[] = {
/* columns rows colors chars-per-pixel */
"64 64 165 2 ",
"   c None",
".  c #020202",
"X  c #0B0A0A",
"o  c #080709",
"O  c #100D0C",
"+  c #180B04",
"@  c #19120F",
"#  c #0D1218",
"$  c #131313",
"%  c #1C1B1B",
"&  c #191613",
"*  c #280B04",
"=  c #281203",
"-  c #331503",
";  c #3F1A04",
":  c #3B1600",
">  c #231A14",
",  c #2E1F15",
"<  c #2E2118",
"1  c #362010",
"2  c #36261C",
"3  c #040827",
"4  c #0C0E36",
"5  c #130C3B",
"6  c #1C1A3E",
"7  c #2B1723",
"8  c #1F2020",
"9  c #242323",
"0  c #2D2C2D",
"q  c #262829",
"w  c #312E2C",
"e  c #302F30",
"r  c #3D233E",
"t  c #333333",
"y  c #3C3B3B",
"u  c #4B1F08",
"i  c #411D10",
"p  c #6F1412",
"a  c #4A2106",
"s  c #582403",
"d  c #572300",
"f  c #402A1C",
"g  c #642A03",
"h  c #6A2C07",
"j  c #722E01",
"k  c #753004",
"l  c #7B3201",
"z  c #73310C",
"x  c #7D310E",
"c  c #703813",
"v  c #401F23",
"b  c #571636",
"n  c #582821",
"m  c #4D392B",
"M  c #573A26",
"N  c #442A33",
"B  c #572733",
"V  c #413E3E",
"C  c #703B26",
"Z  c #753839",
"A  c #5A4232",
"S  c #57413D",
"D  c #62432E",
"F  c #794D2D",
"G  c #6C4933",
"H  c #7A543B",
"J  c #7E583F",
"K  c #7B5337",
"L  c #090D47",
"P  c #181A42",
"I  c #020D5C",
"U  c #050E50",
"Y  c #0A135D",
"T  c #39294F",
"R  c #2F384B",
"E  c #0E1B7B",
"W  c #131C7D",
"Q  c #2D1568",
"!  c #3D2B7B",
"~  c #343274",
"^  c #4E1343",
"/  c #413664",
"(  c #543061",
")  c #5E3779",
"_  c #434343",
"`  c #4D4C4D",
"'  c #4D4A47",
"]  c #554044",
"[  c #4C5451",
"{  c #545454",
"}  c #5C5A5A",
"|  c #6C5149",
" . c #60654F",
".. c #525367",
"X. c #444773",
"o. c #676767",
"O. c #6A6969",
"+. c #747473",
"@. c #851D17",
"#. c #823504",
"$. c #8B3A04",
"%. c #873B08",
"&. c #933B01",
"*. c #9A3E01",
"=. c #8F3E10",
"-. c #9B4205",
";. c #974015",
":. c #A24201",
">. c #AE4602",
",. c #B44900",
"<. c #BB4C02",
"1. c #854D27",
"2. c #83573A",
"3. c #A84D30",
"4. c #C14D01",
"5. c #C55103",
"6. c #CE5401",
"7. c #D45600",
"8. c #DA5900",
"9. c #E45D00",
"0. c #E85F00",
"q. c #80365A",
"w. c #A52F4F",
"e. c #845E45",
"r. c #8F664C",
"t. c #8C644A",
"y. c #9A6E4F",
"u. c #92684C",
"i. c #826C5E",
"p. c #A16E4A",
"a. c #AC744E",
"s. c #B4794F",
"d. c #A47454",
"f. c #A97757",
"g. c #B17C59",
"h. c #934963",
"j. c #9F7265",
"k. c #BD835C",
"l. c #B6825E",
"z. c #BA8461",
"x. c #AD8E7B",
"c. c #C18760",
"v. c #CC8F65",
"b. c #D38F62",
"n. c #D59468",
"m. c #C68C77",
"M. c #CC9277",
"N. c #E69F6F",
"B. c #E6A071",
"V. c #EDA575",
"C. c #F0A877",
"Z. c #091683",
"A. c #151B83",
"S. c #021698",
"D. c #3D2C88",
"F. c #0019AE",
"G. c #001ABC",
"H. c #1B27B7",
"J. c #4C3080",
"K. c #564D94",
"L. c #737D83",
"P. c #564EA0",
"I. c #011BC3",
"U. c #8E6F84",
"Y. c #CAAE9B",
/* pixels */
"                                                                                                                                ",
"                                                                                                                                ",
"                                                                                                                                ",
"                                                                                                                                ",
"                                                                                                                                ",
"                                                                                                                                ",
"                                                                                                                                ",
"                                                                                                                                ",
"                                                                                                                                ",
"                                                                                                                                ",
"                                                                                                                                ",
"                                                                                                                                ",
"                                                                                                                                ",
"                                                                  % t $                                                         ",
"                                                                _ y %                                                           ",
"                                                              % } 9 .     $ $                                                   ",
"                                                              _ ' o .   q } } y 9                                               ",
"                                                              ` ` . o 0 } O.} } V $                                             ",
"                                                            8 { 0 o _ O.o.y X X X . .                                           ",
"                                                          _ { e . . y [ > . . .                                                 ",
"                                                        q ` 0 9 o . . o . o                                                     ",
"                                                  . . % ` 9 % { O > o . 9 ' 0 q                                                 ",
"                                                  $ 9 ` e . & ' % u.r., . q 0 9 .                                               ",
"                                                O t V 0 @ > f e.0 d.C.k.< . .                                                   ",
"                                                  o . . w s.H t.+.i.b.B.G .                                                     ",
"                                                        1 e.v.d.Y.x.g.l.<                                                       ",
"                                                        * > e.v.B.V.n.A                                                         ",
"                                                      h l 1.f.e.u.u.A a                                                         ",
"                                                    L J.Z *.c | y.l.y.C g                                                       ",
"                                                    Y I.H.3.4.i T | / ! z                                                       ",
"                                                M @ K ~ F.Z 0.<.r S.I.) l                                                       ",
"                                              2.p.D s.z.N >.5.<.5.T A.;.1.m   m A                                               ",
"                                            2.n.2.] M.k.1 j 5.:.,.<.=.*.a.j.U ] n.H                                             ",
"                                            M b.M.K.U.H     u v 7 ( J.N z.P.W f.N.H                                             ",
"                                              K / E P       3 I Y F.G.4 M 6 5 F 2.                                              ",
"                                                          u &.g *.n C z +                                                       ",
"                                                          $.>.:.9.j 6.6.g                                                       ",
"                                                          -.8.7.8.j 6.0.l                                                       ",
"                                                        a 6.0.9.8.l 7.0.l                                                       ",
"                                                        %.$.,.0.:.*.0.0.l                                                       ",
"                                                      O -.<.,.9.%.s 6.6.#.-                                                     ",
"                                                      - j &.7.7.#.*.%.-.<.u                                                     ",
"                                                      g :.-.<.d = ,.6.,.4.i                                                     ",
"                                                      5 b B j : . u x #.s                                                       ",
"                                                      ' w.X.#     R ..@.                                                        ",
"                                                    q y.h. .      [ L.q.p                                                       ",
"                                                    3 ^ Q I       L Z.Z.b *                                                     ",
"                                                                                                                                ",
"                                                                                                                                ",
"                                                                                                                                ",
"                                                                                                                                ",
"                                                                                                                                ",
"                                                                                                                                ",
"                                                                                                                                ",
"                                                                                                                                ",
"                                                                                                                                ",
"                                                                                                                                ",
"                                                                                                                                ",
"                                                                                                                                ",
"                                                                                                                                ",
"                                                                                                                                ",
"                                                                                                                                ",
"                                                                                                                                ",
"                                                                                                                                "
};
