/* XPM */
static char *_3d49acd9e3b41c6b6eacc75333556575fSuC3KCHM25p2Gh[] = {
/* columns rows colors chars-per-pixel */
"64 64 138 2 ",
"   c #000100",
".  c #090504",
"X  c #040A04",
"o  c #0C0A03",
"O  c #020709",
"+  c #0D0609",
"@  c #020B0A",
"#  c #0B0B0A",
"$  c #110D02",
"%  c #12070C",
"&  c #130A0D",
"*  c #071107",
"=  c #0C1106",
"-  c #04100F",
";  c #0A120A",
":  c #0E1D0E",
">  c #151104",
",  c #1A1506",
"<  c #14140B",
"1  c #1A160A",
"2  c #12180F",
"3  c #1C190B",
"4  c #130D11",
"5  c #1B0D12",
"6  c #031312",
"7  c #0C1110",
"8  c #041817",
"9  c #081817",
"0  c #0A1D1C",
"q  c #131313",
"w  c #1E1016",
"e  c #121D12",
"r  c #1C1C17",
"t  c #121B1C",
"y  c #1A1A1B",
"u  c #201907",
"i  c #241D0A",
"p  c #210F17",
"a  c #221017",
"s  c #25131C",
"d  c #28151E",
"f  c #0F210E",
"g  c #07211F",
"h  c #0A201F",
"j  c #132213",
"k  c #192A19",
"l  c #1C311B",
"z  c #1E381E",
"x  c #262109",
"c  c #2C240D",
"v  c #32270F",
"b  c #312A0D",
"n  c #3D370F",
"m  c #232010",
"M  c #292814",
"N  c #382E12",
"B  c #273418",
"V  c #3F3614",
"C  c #2E1922",
"Z  c #331B25",
"A  c #3A1E2C",
"S  c #052422",
"D  c #0B2524",
"F  c #0F2827",
"G  c #0E2E2D",
"H  c #122425",
"J  c #1C2224",
"K  c #152E27",
"L  c #132C2C",
"P  c #11312F",
"I  c #0F3432",
"U  c #0D3C3A",
"Y  c #133432",
"T  c #143A38",
"R  c #232323",
"E  c #2C2B2C",
"W  c #37292E",
"Q  c #213A20",
"!  c #29372A",
"~  c #333223",
"^  c #362A30",
"/  c #3B2F33",
"(  c #363636",
")  c #3C3B3B",
"_  c #423A11",
"`  c #4B3F16",
"'  c #493C18",
"]  c #40212F",
"[  c #432230",
"{  c #4E2637",
"}  c #442B37",
"|  c #4E2F3C",
" . c #264625",
".. c #2D492C",
"X. c #3F5229",
"o. c #3A5839",
"O. c #3E603D",
"+. c #4F4521",
"@. c #5D532A",
"#. c #464334",
"$. c #625427",
"%. c #635828",
"&. c #645E3F",
"*. c #6E6632",
"=. c #746635",
"-. c #7A6B35",
";. c #736839",
":. c #4D3E44",
">. c #543442",
",. c #154442",
"<. c #1A4140",
"1. c #184B48",
"2. c #254C46",
"3. c #224D4C",
"4. c #3F4040",
"5. c #2E6663",
"6. c #396C69",
"7. c #3D736D",
"8. c #3A7473",
"9. c #444444",
"0. c #484848",
"q. c #5A454F",
"w. c #445642",
"e. c #495E48",
"r. c #604952",
"t. c #704559",
"y. c #456843",
"u. c #4A7349",
"i. c #547B52",
"p. c #696342",
"a. c #7F7242",
"s. c #764D61",
"d. c #795063",
"f. c #496B69",
"g. c #8D5F75",
"h. c #61895F",
"j. c #8D8142",
"k. c #4A8B8A",
/* pixels */
"        .         4 H 6               # y               *             . #   * f X +   O       X       . #               X 6 h   ",
"                                . b o           .         O X         R )           .         X   C +           #         D U   ",
"                                > j.c           + C a                 . +                       4 g.C           #           O   ",
"    +             .           O r u $   X         s.>.              & .                 i 3   O q 5 +   #                       ",
"                # q                   X X     X O & t @                         . O     #.~           X X           X O         ",
"      . q       .                         , v X                         #       #     . $ o                   X                 ",
"    O 6 #       O .                       3 +.X   X                 6 0 .       q .                       X :   X @             ",
"    @ 9           .                       X 9                       0 P   X                                 #     X             ",
"                        O       .                       O O                                                   O   ! w.  @ 6     ",
"              @ 8       6         @                           E y                       @       9 S               ; r   3.8.    ",
"              2.7.                  O                 .       R y                               I D                     F Y     ",
"      @       h K                             X       % # .                             O       O                     + # #     ",
"  % + 1.6     . $             O                     o #           .     o       .             @                                 ",
"      @ X               .     O               . q   z f                 *     .         .   X -                 #               ",
"            O                     O         .   #   X X               .           .     o _       X       2 #   .               ",
". .         , .   #               6 O                                       V . . q     X B u.#   @        .;                   ",
". X         > .                                                 # #         c o         X 9 o.#                             . < ",
".             # #                 ( J                       o $ # .           # .         X             X                   B &.",
"                                  J q           , %.o .                                                               .   . + < ",
"  X X                   ' $                     x =.> o   .       X X   ) R             i .                           . . +     ",
"  O X       o y.e       ,                 .       .                 X   e #             o                                       ",
"        X   * O.j           . . .         q #                                 O             % . .       . # .                   ",
"      . ;                 X X   q     . #           # .                                     X   #     # 7                       ",
"{ +   q 0..     X   X X                             q.W   O     p .             X                                   3 $.o @     ",
"s .     #       #   l j                             & # 7 7     %               X                             X t   M =.< 6     ",
"                    X   .                               .                                       O             t f.O X . .       ",
"                                                    O                         X         .     $ -.i             @               ",
"  #           X                       7 #                       . q         X X   X           o @.i   . .       .               ",
"    6 9                             @ L O                         . O @             o                 .                         ",
"    0 G                 o . %       @ T         .                   - 9           $ ` . > . .                   .               ",
"                                  X             .                                   .             X   O         o               ",
"                                                                                          .                                     ",
"                  < &     # .         O                                           # .     q #                                   ",
"      X X         | t.                          .     = Q .     # j   X #         .                             + .       .     ",
"                  Z }       .           X         .   . j #     k h.*   X O                 .           X     w C +       .     ",
"        o n               . o C +                               * f X                       .                 / :.      0 5.@   ",
"          ,   .               Z +                                                                             & 5       D 6.@   ",
"      X                                     X                         X     @                                                   ",
".                                                           O + +         - ,..                                             6 O ",
"                      O           X .                   q   O . .         O 6                         .                 #   @   ",
"                                      . #   x o                                             9.#       + q                       ",
"                                            b X                         O                   y O     . W &           .           ",
"                                          @ O                     O .                               % g.C O O                   ",
"  . O         O       : ;                                 # .     # q                 z j           . & .                 q #   ",
"            @ - X z   X           X .                                       O O       X .                                   O D ",
"                X j     . .     j i.o                                                                                       @ ,.",
"                        . +     : ..X       X #                   O Y - .               . .                   X                 ",
"      X       .             X y               X                   6 k.L       # .             #           X                     ",
"              .       .             .                       = >   O 6 @       # .                                           ; o ",
"                                    9.7                     .       5 %                                     . u             #   ",
"            , i                     # O           . r.5             Z p                                     o _ .               ",
"    .       -.a.O                       o     .     W #             %       i . @                       ,                       ",
"    O       3 , X                               q O                 +       o   6       >                       O .             ",
"                                                . .                                   $ _                       .               ",
"                                  6 @                     .                             X         X                             ",
"                        X . o     O                       %                           X * . .                           . .     ",
"            . #             .       # a Z                                     .                     q 4 5               .       ",
"            # q               X X     % 5                             O     . O               @ 6     . +                       ",
"      @                       X X                                     6 X                                                       ",
"4 +                                 o               .                                                               V c   q y   ",
"A 5                               3 p..             # #   D @                         .                             *.+.  R (   ",
"    6 O       O O @             q . 2 5 >..               T @       @       # e.;               #         X         o o         ",
"            X   6 <.X             s . s d.&                                 * ! #               . [ &      .o                   ",
"  8 S             @               %   . +                                     X                   5 .     X X                   "
};
