/* XPM */
static char *_0cec847e67c46dbfce35fa528234244nRFb3a6aLRdciFyv[] = {
/* columns rows colors chars-per-pixel */
"64 64 168 2 ",
"   c None",
".  c #EF0100",
"X  c #EF0B00",
"o  c #F10200",
"O  c #F30E02",
"+  c #EE1000",
"@  c #EF1A00",
"#  c #F31300",
"$  c #F41B02",
"%  c #F11213",
"&  c #F41B15",
"*  c #EF2E00",
"=  c #F52202",
"-  c #F32C00",
";  c #F1270D",
":  c #F33300",
">  c #F43F00",
",  c #F22A2C",
"<  c #F4302C",
"1  c #F44603",
"2  c #F54E01",
"3  c #F84F00",
"4  c #F65700",
"5  c #F85100",
"6  c #F55B00",
"7  c #F95B00",
"8  c #FA6600",
"9  c #F66900",
"0  c #F96C00",
"q  c #F76C09",
"w  c #F57500",
"e  c #FA7300",
"r  c #FA7A01",
"t  c #F44E27",
"y  c #F45A45",
"u  c #F66A41",
"i  c #F87446",
"p  c #F58300",
"a  c #FC8C01",
"s  c #EE9D0B",
"d  c #FB9401",
"f  c #F49D03",
"g  c #FC9D00",
"h  c #FC9E09",
"j  c #FB8713",
"k  c #E69A13",
"l  c #F5A500",
"z  c #FBA401",
"x  c #F6AA00",
"c  c #FDAD01",
"v  c #F7A20D",
"b  c #FAA30A",
"n  c #F6AB0A",
"m  c #FCAE0A",
"M  c #FDB301",
"N  c #FFBB00",
"B  c #FEB30C",
"V  c #FFBB0C",
"C  c #F7A214",
"Z  c #F9A413",
"A  c #F7AC12",
"S  c #FAAC16",
"D  c #F6A318",
"F  c #F9A71C",
"G  c #F6AD19",
"H  c #F7B111",
"J  c #FDB314",
"K  c #FFBB14",
"L  c #F6B11D",
"P  c #FDB51B",
"I  c #FFBC1B",
"U  c #FB932A",
"Y  c #F7A624",
"T  c #F8A622",
"R  c #FBAA21",
"E  c #F6A92C",
"W  c #F8AA2B",
"Q  c #FDB521",
"!  c #FFBA24",
"~  c #F7B42A",
"^  c #FAB62C",
"/  c #FEBC2C",
"(  c #F6AC34",
")  c #F8AE32",
"_  c #F6AF3F",
"`  c #F8AE3D",
"'  c #F7B733",
"]  c #FCBC32",
"[  c #F7B93B",
"{  c #FBBE3B",
"}  c #FFC200",
"|  c #FFC10C",
" . c #FFC313",
".. c #FFC31D",
"X. c #FFC323",
"o. c #FFC927",
"O. c #FFC22A",
"+. c #FFC82B",
"@. c #FFC434",
"#. c #FFCA35",
"$. c #FEC43B",
"%. c #FFCB3B",
"&. c #FA9147",
"*. c #F89059",
"=. c #F6AF41",
"-. c #F8AE42",
";. c #F6B044",
":. c #F8B045",
">. c #F9BD43",
",. c #F6B14A",
"<. c #F8B34C",
"1. c #F8BF49",
"2. c #F5B656",
"3. c #F6B95E",
"4. c #FDBA5B",
"5. c #F6BD65",
"6. c #F6BD6A",
"7. c #F7BE70",
"8. c #FFC544",
"9. c #FFCA45",
"0. c #FCC54B",
"q. c #FFCA4B",
"w. c #FFD04E",
"e. c #FAC553",
"r. c #FFCA53",
"t. c #FCC45A",
"y. c #FFCC5C",
"u. c #FFD153",
"i. c #FFD15D",
"p. c #FDCD63",
"a. c #FBCD6C",
"s. c #FFD265",
"d. c #FFD36B",
"f. c #F5C076",
"g. c #FACE73",
"h. c #F7C379",
"j. c #F8C178",
"k. c #FED273",
"l. c #FED57B",
"z. c #FFD87E",
"x. c #F6C581",
"c. c #F7C885",
"v. c #F5CA8A",
"b. c #FBD585",
"n. c #FFD985",
"m. c #FBD78B",
"M. c #FEDA8C",
"N. c #F6CC95",
"B. c #F8D097",
"V. c #FDDC93",
"C. c #F5D19B",
"Z. c #FCDD9B",
"A. c #FFE19E",
"S. c #F6D4A2",
"D. c #FCDFA1",
"F. c #F7D7A9",
"G. c #F5DCB4",
"H. c #FEE1A4",
"J. c #FEE4AB",
"K. c #FEE6B2",
"L. c #FFE8B6",
"P. c #FCE7BA",
"I. c #FFE9BB",
"U. c #FFECC5",
"Y. c #FEEDCA",
"T. c #FFF1D5",
"R. c #FFF2D8",
"E. c #FFF6E4",
/* pixels */
"                                                                                                                                ",
"                                                                                                                                ",
"                                                                                                                                ",
"                                                          G.S.B.B.S.G.                                                          ",
"                                                    6.( Z b z z z z b Z ) 5.F.                                                  ",
"                                              v.) z c J Q P S c c c c c c z z ) c.                                              ",
"                                            W z / a.Z.J.J.A.M.y.P c c c c z c c z W C.                                          ",
"                                        3.b P M.T.R.Y.U.K.H.Z.n.g./ c c c c c c c c b 2.                                        ",
"                                      ) z 8.U.E.R.Y.I.J.D.V.M.z.d.r.B c c c c c c c c z W                                       ",
"                                    R z { T.E.R.Y.I.J.A.Z.n.l.d.p.r.P c c c M c c c c c z F                                     ",
"                                  R z P I.E.R.U.I.J.H.V.n.l.d.p.r.8.P M M c c c c c c c z c F                                   ",
"                                W z c a.R.R.U.I.K.A.V.n.l.d.p.r.8.@.B M M c M c c c c c c c c R                                 ",
"                              :.z c m D.T.U.I.J.A.V.n.l.d.y.r.9.$.! M M M M m M c M c c c c c z `                               ",
"                            j.z c c B J.Y.I.J.A.A.z.l.d.i.r.9.$./ V M M M M M M M c c c M c c c z 7.                            ",
"                            Z c c c N M.I.J.A.M.n.l.s.i.r.9.$./ V M M M M M M M M M c m c c c c c b                             ",
"                          <.z c / y.$.9.H.A.V.n.l.d.i.r.9.$.X.V M N M M M M M M M B V B B B m c c c -.                          ",
"                          b c y.I.Y.K.q.9.n.n.l.d.s.q.9.@. .M N N M N M M M M B K I / ] / ! J m c c h                           ",
"                        :.z r.U.U.L.J.l.B I $.9.9.$.O.K V N N M M N M M N N V K O.$.q.r.q.8./ P m m c `                         ",
"                        b Q K.U.L.J.A.z.K M M N N M N M M N M N N N N N M M K X.$.r.p.s.p.y.9./ J m c b                         ",
"                      6.z k.U.L.J.Z.M.k.V M M M M N M N N N N N N N N N d q  .@.q.s.s.d.d.s.r.8./ J m z 3.                      ",
"                      T J H.L.H.A.M.n.y.M M N M g c N N N N N N N N N } r ; W 8.r.s.d.d.d.d.s.r.$.P B c T                       ",
"                      b { K.H.Z.M.n.l.%.M M M N 4 e N N } N N N N N c d 1 % t u *.s.d.d.d.d.s.y.8./ J m b                       ",
"                    j.z r.H.Z.M.z.k.p.! M M N M : - g d z N } N N M 3 O o % , u 4.s.d.d.d.d.s.s.0.] P m z 7.                    ",
"                    <.z r.Z.M.n.k.s.9.M N b e 2 O o O $ a } } } } N c 7 O % , &.i.s.d.d.d.d.d.s.r.8.! S c -.                    ",
"                    W c 8.M.z.k.s.r.I M N g > . . o o e } } } } } } } z $ & < i i.d.d.d.d.d.d.s.y.8./ J c F                     ",
"                    Z z ! l.k.p.r.! M M M N M 4 o o # g } } } } } } } d = j U i i.s.d.d.d.d.d.s.y.8./ J m Z                     ",
"                    b c m { y.8.I M M N M N N 8 o : # 8 } } } } } } } g a  .+.9.u.s.d.d.d.d.d.d.y.0./ P m b                     ",
"                  S.z c c c B M M M M M M N N 4 7 M a e } } } } } } } } }  .X.%.u.s.d.d.d.d.d.d.p.0.] J m z                     ",
"                  N.z c c c M c M M M M N M N g N N } N } } } } } } } } N | ..#.w.i.d.d.d.d.d.a.y.0.] P m z                     ",
"                  N.z c c c c c M M M N M N N N } N } N } } } } } } } } } |  .o.9.i.s.d.d.d.d.d.y.8./ J m z                     ",
"                  N.z c c c c M c M M M N M N N N N } } } } } } } } } } } } | X.%.u.s.d.d.d.d.p.r.8.! J c b                     ",
"                    z z c c M c M M M M M N N N N N } } } } } } } } } } } N |  .o.9.i.s.d.d.d.p.r.$.Q B c z                     ",
"                    b l l c M c M M M N M N M N N } } N } } } } } } } } } N N V ..@.q.i.s.d.s.y.9./ P m l z                     ",
"                    h l l c c M M M M M M M N N N N N } N } } } } } } } N N 8 M V ..#.q.i.i.y.q.] P m l l h                     ",
"                    D l l l x c c M M M N M N N N M c N } } } } } } } } } c = r | V I O.@.8.$./ I n n l l Z                     ",
"                    W l l l x x c M M M M N M N N a 5 N N } } } } } } N c e O = 2 1 v K K I K H n n l l l W                     ",
"                    2.z l l l x c M M M M M N N } e # a x z N N } } N r $ O o o X 6 M M } } H x x x l l l ,.                    ",
"                    v.l l l l l x x c M M N M a 0 - o # $ 6 N N N N N c 0 # o o * M N M n x x x x l l l g                       ",
"                      v l l l l x x x c M M c 6 X . o o * x N N N N N N N 1 . . @ l } x x x x x x l l l b                       ",
"                      ( z l l l x x x x x M M M e X . o 9 } N N N N N N M - 1 r * p x N x x n n x l l l (                       ",
"                      x.z l l l x x x x x x M N f + @ + * M N N N N N M x w x } x l x x x L +.[ L l l l f.                      ",
"                        D l l l x x x x x M M x p * f d 6 f N N N M N M } x x x x x x H ..0.5.g.>.b l C                         ",
"                        3.l l l x x x x x M x M s s x } x M M M M M M x } x x x x x N L 0.g.z.m.e.n z 2.                        ",
"                          C l l l l l x x x x x } x x x M M M x x M M M x } x } x x n %.g.b.C.Z.1.l v                           ",
"                          6.z l l l x x x x x x x x N N M x M M N x x x } x x x N x L p.m.D.D.m.~ l 3.                          ",
"                            Y l l l l x x x x x x N x x x M x x N x x x x H H L L H ~ g.D.G.S.e.n Y                             ",
"                              b l l l l x x x x x x x M x M x M x x N H ..~ %.1.u.e.0.g.Z.m.e.G b                               ",
"                                l l l x x x x x x x x x x x M x x H H O.%.e.a.g.m.V.b.e.0.' H x                                 ",
"                                  z l l l l l x x x x x x x x x x L ' 0.t.a.l.M.D.K.G.0.n l l ;.                                ",
"                                    z l l l l l l x x x x x x x L [ e.p.g.b.Z.H.P.U.H.[ z z                                     ",
"                                      z z l l l l x l x x x x n O.e.a.g.b.Z.G.I.Y.P.a.S z                                       ",
"                                          l l l l l l l l x x n ' a.l.m.Z.K.P.U.F.a.L b                                         ",
"                                            z x l l l l l l l l L e.g.v.Z.Z.V.g.>.S                                             ",
"                                                z l l l l l l l n G ' $.1.{ ~ S b                                               ",
"                                                    z l l l z l l x l n n b s                                                   ",
"                                                          s f b f s k k                                                         ",
"                                                                                                                                ",
"                                                                                                                                ",
"                                                                                                                                ",
"                                                                                                                                ",
"                                                                                                                                ",
"                                                                                                                                ",
"                                                                                                                                ",
"                                                                                                                                "
};
