/* XPM */
static char *_8d8af82709e4641a2cd33226d5f658bUxhl7BJpvrPM4NtW[] = {
/* columns rows colors chars-per-pixel */
"64 64 153 2 ",
"   c None",
".  c #1C1406",
"X  c #1D160C",
"o  c #1E180E",
"O  c #1E1710",
"+  c #1D1810",
"@  c #211706",
"#  c #261907",
"$  c #2B1C07",
"%  c #211708",
"&  c #251B0C",
"*  c #2B1E0B",
"=  c #301F07",
"-  c #231B11",
";  c #2E210D",
":  c #392507",
">  c #34230C",
",  c #39260B",
"<  c #3D290C",
"1  c #2D2212",
"2  c #2B2419",
"3  c #342613",
"4  c #372915",
"5  c #3A2A14",
"6  c #312718",
"7  c #33291A",
"8  c #3C2D19",
"9  c #3F311B",
"0  c #342C23",
"q  c #392E21",
"w  c #3C3325",
"e  c #3D352B",
"r  c #442D0D",
"t  c #47300F",
"y  c #4B320E",
"u  c #52360E",
"i  c #55390F",
"p  c #412E13",
"a  c #412F18",
"s  c #453114",
"d  c #4C3413",
"f  c #4E3817",
"g  c #443219",
"h  c #4A361A",
"j  c #4D391C",
"k  c #513612",
"l  c #553A12",
"z  c #5A3C13",
"x  c #543C1B",
"c  c #5A3F1A",
"v  c #443624",
"b  c #473823",
"n  c #4F3D23",
"m  c #413729",
"M  c #43392B",
"N  c #4B3E2B",
"B  c #533F22",
"V  c #463E30",
"C  c #5C4016",
"Z  c #56401F",
"A  c #5D421B",
"S  c #61451D",
"D  c #564121",
"F  c #5C4422",
"G  c #5B4629",
"H  c #5F4928",
"J  c #4E4334",
"K  c #4C453A",
"L  c #534A3E",
"P  c #594C3B",
"I  c #624721",
"U  c #654A23",
"Y  c #694D26",
"T  c #644C2A",
"R  c #6A4F28",
"E  c #6C5027",
"W  c #67502D",
"Q  c #6C5029",
"!  c #6D512A",
"~  c #6A522D",
"^  c #6D522B",
"/  c #70552E",
"(  c #6E5530",
")  c #695231",
"_  c #6D5837",
"`  c #705630",
"'  c #725730",
"]  c #735931",
"[  c #745A32",
"{  c #775C34",
"}  c #745B33",
"|  c #795E37",
" . c #785E37",
".. c #765E38",
"X. c #755E38",
"o. c #795F38",
"O. c #795F38",
"+. c #7A6139",
"@. c #7C633B",
"#. c #7E643D",
"$. c #7D643F",
"%. c #7C623B",
"&. c #534B41",
"*. c #524D43",
"=. c #575147",
"-. c #5A5145",
";. c #5B5346",
":. c #585046",
">. c #565148",
",. c #595349",
"<. c #5D554B",
"1. c #5F5952",
"2. c #625A4D",
"3. c #605A50",
"4. c #625B51",
"5. c #665F56",
"6. c #635D53",
"7. c #7F6640",
"8. c #656056",
"9. c #666056",
"0. c #666059",
"q. c #6A645C",
"w. c #6C655C",
"e. c #6D685E",
"r. c #786C5B",
"t. c #716C63",
"y. c #736D66",
"u. c #736C63",
"i. c #787167",
"p. c #7C7367",
"a. c #77726A",
"s. c #7A756D",
"d. c #7F7971",
"f. c #7F7A72",
"g. c #80663F",
"h. c #80663F",
"j. c #816740",
"k. c #826841",
"l. c #836942",
"z. c #836A42",
"x. c #856B44",
"c. c #856B45",
"v. c #866C45",
"b. c #876C45",
"n. c #866D46",
"m. c #846A43",
"M. c #817D76",
"N. c #837D75",
"B. c #878279",
"V. c #88837C",
"C. c #89837C",
"Z. c #91877A",
"A. c #8B8680",
/* pixels */
"                                            &.L                                                                                 ",
"                                        K * * * 7                                                                               ",
"                                    f.1 > > & * > M.                                                                            ",
"                                  q.X * > & & y i 4                                                                             ",
"                                y.X o & & # y z l r M         w M     5.w t.                                                    ",
"                                o X X X > u i z z z t ; 8.;.* 3 3 1 2 > 4 & e M q 4.            V.                              ",
"                                $ > , y u z z i z z z y > # * ; 3 4 4 4 4 3 3 3 3 ; 2 4.i.;.w > # K                             ",
"                                r z z z z z z U [ U z i z l r > ; 4 4 4 4 4 5 4 4 4 3 , p k k l s @ K                           ",
"                                p z z S A z A %.b.[ z A S z z k 4 4 4 5 4 4 5 4 4 4 5 5 d z z z z < X ,.                        ",
"                                , l z I R Y R k.l.g.{ #.#.S c S x f d k k 4 4 5 5 j 5 5 p g g p p y > .                         ",
"                                > k z I R R / o.b.b.b.k.l.{ U R U z z z z p 7 4 T k.R B T g 4 3 5 p d # w                       ",
"                              L 4 B Y U R R S / g.| ` T Q | U F x d d z z p 4 h 7.b.b.l.b.~ p 5 4 4 f d #                       ",
"                              @ 8 F R U F j 8 f D f p 8 d c a 8 4 4 d z z u h I ` %.#.l.X.h 4 5 5 5 5 l r                       ",
"                            6 % p I T j a 4 4 4 4 5 4 4 3 5 4 4 4 p k z z z A R U A h H G 4 4 4 4 4 5 k r                       ",
"                          m > 1 d A U k p 5 p p r 8 4 4 5 4 4 5 5 d l z z z I Y R R h g g 5 j f 5 4 5 l t B.                    ",
"                        <.< d 4 8 i y r < < r l z k 5 5 4 4 5 4 d z z z i z S l p g a 4 4 j S I 8 4 5 l k w.                    ",
"                      w., k p 5 s : @ % $ $ $ = y z i k 8 4 5 d z z z A A z i s 4 5 4 7 s F I Y d 5 5 d y P                     ",
"                    5., z f 5 s , . & = > > > * $ u z l 4 4 5 l z z S Z 8 h d 5 4 8 h x F S Y Y D 8 5 p i 5                     ",
"                    5 z l s 4 s # X - 3 > > > > $ t z i 5 7 p z z S U E f 4 7 4 8 A Q Q Q ^ ^ E I h 5 s i r L                   ",
"                    , l s 4 4 p @ X * > , , > > $ r C y 4 4 s z Y U U U Y Z p h I Y Q ^ @.+.` E Y h 5 k z z r ;.                ",
"                    * 8 5 p 5 p % O & 3 3 > > > $ t d 8 4 4 y S Y U R S S I Y Y Q Q ] #.h.+.#.[ ~ j < z z i z r                 ",
"                  M.5 8 j A 5 p # X O * > > > > $ y p 4 4 g C Y Y S C S Y Q Q Y ~ g.m.#.` +.n.#.` h 5 t z i u y w.              ",
"                  w f g F A l d , X O O * ; * * , u 5 8 4 j Y Q U S z z I Q Q U #.b.#.A C E x.$.@.n 6 * d z z z 5 B.            ",
"                4.p k s F S z i y # O O - O X % t i 5 4 4 F Q U I / U z z I Q U +.b.{ z z Y x.7.} _ 9 ; # t i z z N             ",
"              q.< l 5 h U z z z z t # % X X @ r z k < 4 8 A A A S S x k l A Q Y U [ @.C z S l.+.j F p 5 , > , < r 9             ",
"            <.< l d 8 F A C S A z z k : * ; t l z s 3 5 p l z z s $ @ % # : l A z S [ S z f G ~ 8 5 5 5 f l $ . . X e           ",
"          b s z k s j I Y R Q U A z z i z l f p t 8 g s h z z r # X X O O . @ r z z C z z d 8 h 4 5 5 5 k y . X O + O X s.      ",
"      r.f z z z A I I R R T x ^ / z l s s < 5 5 4 8 D g x z l & X O + - - - X @ y C i d d d 4 4 3 5 4 5 k # X + + + + + -       ",
"  p.j l l z z S Y U I D j 8 8 Q | S d 4 5 4 4 4 5 p f , s l , X + + * 3 > > * X , z d 5 s 4 4 5 5 5 4 5 r % O + + + + + & K     ",
"  & y z i z S Q R A s 4 5 4 G +.{ [ j 5 5 8 4 4 s F h 5 < s # X + & , > > > , & ; l s 5 7 4 5 5 5 3 5 d r X & 1 > & + + + +     ",
"  X * u i z S Q F g 4 4 4 8 T | %.| F 4 f c s 5 B Y p 4 4 p @ + - > > > > > > > $ l 5 4 4 7 5 3 5 4 5 l > X 1 > , > - + + + *.  ",
"  X % r z z z A 8 4 4 4 4 4 F | o.o.Q F I Y ) h U T a 3 4 r X X - , > , > > , ; = i 5 5 4 5 5 5 5 5 5 l * - , > > > * + + X 2   ",
"  X O * k i l l k j 5 5 4 4 B { [ +.` Q Y H H A Z d 3 5 t y X O 1 > > , > > > ; = z r 4 4 p t 5 5 4 a k & * = = 3 = * - O O O M.",
"  X O % u z i l t p 4 4 4 4 p h j ~ ( ^ ] H 5 5 5 5 4 5 s t X O ; > > > > > , # t k 5 4 a l k p , 4 a k * ; , 3 = p ; O O O O 1.",
"  7 - % r z c h 7 4 4 5 5 5 4 7 4 s ) #.#.D 5 4 5 5 4 5 p t # X - > , > > > ; > l t 4 , p z l y 3 5 a l $ ; p = , , > O O O O *.",
"  M > % = z l 4 4 5 4 5 > p d 5 5 7 5 F W 8 5 5 5 4 4 < 5 s $ X & 1 ; , > > $ t z r 3 4 t z l u r 5 p d & 3 = , 3 = ; - O O O >.",
"  &.> & $ d p 5 4 5 4 5 5 t i k s 5 4 8 h 6 5 5 6 5 6 5 4 p r @ X X - * * # t i k 5 5 5 k z i z r 4 p y & = = 3 > > 1 + O + O 0.",
"  w.; & # p 4 4 4 4 5 5 p i i i z d < < 4 5 s 5 5 5 5 5 5 4 u r & X X % = y z l r 4 4 5 d i i i p 5 5 r & > 3 = , > * + O + X A.",
"    * * @ d 5 4 5 4 5 , l z z u i C C 5 4 s s 4 6 5 5 3 5 4 s z l r < p u u z r 4 4 , p i k y r 5 5 5 p & * > 3 > > - + + + 2   ",
"    1 * @ d p 4 , 4 4 4 p u z u i i i s 5 y 8 3 5 5 3 5 5 4 5 d l d d k u z s 5 4 5 4 p s p 5 5 5 4 5 y = - * > , ; + + + O >.  ",
"    V & & d s 4 4 4 4 4 5 u z u i C u < < d 5 5 4 4 8 8 5 5 4 8 5 4 4 p z l 5 4 5 4 5 4 4 5 k k p p 4 d t X & & - - O + + -     ",
"      X # r > 1 3 4 4 4 5 l z i C i t 5 s l d C d s s A x 8 4 5 4 4 4 5 p k 5 4 5 5 5 5 5 5 k u l s , s l * X o + + + + X q.    ",
"      q.,.5.<.*.M * ; 3 4 k z i i u 5 < u y t t t l i C S x p 4 4 4 5 4 p l 5 5 k l k k k t u z t > @ # , < @ X + O + o K       ",
"                  C.@ & 3 s i i i t 4 s < @ o o % # < l C A n 4 4 4 4 4 5 d p p z i u l u i u z t 5 4 1 > * . . X . - 1.        ",
"                    v < ; 5 f y i 8 5 u ; X o o + O X > l f 5 4 8 p 4 4 8 5 5 5 u u i c z z z i k 5 3 4 p y t : ,.              ",
"                    2.u d 5 5 5 < 5 5 y o o + o + + + X < k p d l s 4 4 4 5 5 5 d i U Y Y S S z f 4 5 5 5 s z r                 ",
"                    B.: i h 5 4 4 4 8 y & + & ; ; ; & X & d l z t a 4 4 4 4 4 p u z R R Y Y I z y 3 4 5 3 , l r a.              ",
"                      9.> l 5 4 4 4 5 y ; o ; > > > 1 & X r z f 4 5 d p a p a s u c E E R Y I z t 5 4 , 4 = s M                 ",
"                        8 d d 8 5 5 5 r r $ > > > > > & X < l s h l z z i i i z C U / ^ ] ` A z s 4 5 5 4 @ L                   ",
"                          8 d z 8 4 3 5 z < ; > > > & + X p l 8 F U S z z z z A A U [ @.h.h.U l r 5 5 3 3 &                     ",
"                            8 k p < 4 5 j z , $ ; % o X > l f 8 T Y Y S C C Y E E U [ +.@.[ C z 4 4 5 4 1 7                     ",
"                            A., s 5 7 4 x S l y , > > < k k g h Y Y A A U I U E Y Q h.h.[ S i d 4 3 5 4 3 w                     ",
"                              <.: p 4 5 F U I z z z z k h g j T Y E z z U U S T A A l.[ C i d 8 5 5 5 4 5 M                     ",
"                                M p p 4 s I Y S z z A d s j S S S S z l C S x s 4 8 H z l l 5 4 5 5 4 4 r M                     ",
"                                  5 j 4 7 8 h f z S F k z z z z l l i i z C g 3 4 4 4 y l d 5 5 3 5 5 5 d M                     ",
"                                  6.t s 5 5 4 5 F U I z z l s 8 5 p f k s s s h 5 5 5 8 5 5 3 5 5 p y y y v                     ",
"                                    s l s p 4 4 g x B z i s 5 4 5 5 4 4 & ; d A j 4 5 6 5 , 5 s k d < * & M                     ",
"                                    P l z u d 5 5 4 8 s r 4 3 1 * * 3 1 2.B l z d 4 4 5 4 4 5 d r $ X & M                       ",
"                                    B.= , , r y x d p 4 p , 7 w.  e.1 a.    Z.h y s p 5 8 d y r @ % - J                         ",
"                                      1 X . . * < k z l s J                     b y z x x i < . & ; P                           ",
"                                      M.- + + X X % r k N                         b l z i , X * * 2.                            ",
"                                          5.0 O X X . 3                             a l r @ & 7 C.                              ",
"                                                a.6.5.                                5 $ 1 6.                                  ",
"                                                                                      y.e.                                      "
};
